<?xml version="1.0" encoding="utf-8"?>
<!-- Generator: Adobe Illustrator 27.2.0, SVG Export Plug-In . SVG Version: 6.00 Build 0)  -->
<svg version="1.1" id="Layer_1" xmlns="http://www.w3.org/2000/svg" xmlns:xlink="http://www.w3.org/1999/xlink" x="0px" y="0px"
	 viewBox="0 0 1701.4 383.4" style="enable-background:new 0 0 1701.4 383.4;" xml:space="preserve">
<style type="text/css">
	.st0{fill:#FFFFFF;}
	.st1{fill:#00B851;}
</style>
<g>
	<g>
		<circle class="st0" cx="191.1" cy="191.7" r="191.7"/>
		<path class="st1" d="M191.1,0C85.2,0-0.6,85.8-0.6,191.7c0,55.7,23.7,105.8,61.6,140.8c-2.6-5.3-2.4-11.1,0.5-18.8
			c5.6-14.5,12.1-28.8,20.1-42.1c9.5-15.9,29.1-20.9,46-13.2c42.3,19.2,84.5,19.2,126.9,0c17.2-7.8,36.7-2.6,46.4,13.7
			c7.7,12.9,14.1,26.8,19.4,40.9c3.1,8.2,3.5,14.1,1,19.4c37.8-35,61.5-85.1,61.5-140.7C382.8,85.8,297,0,191.1,0z M190.5,253.7
			c-41.2-0.2-74.5-34-74.3-75.4c0.2-41.4,33.6-74.8,74.9-74.8c41.4-0.1,75.1,33.8,75.1,75.4C266.1,220.4,232.2,253.9,190.5,253.7z"
			/>
	</g>
	<g>
		<path d="M453,83.3h83.2c23.1,0,40.8,6.2,53,18.5c10.4,10.4,15.6,23.4,15.6,40.8v0.5c0,29.4-15.9,47.8-39,56.4l44.5,65h-46.8
			l-39-58.2H493v58.2h-40V83.3z M533.5,170.9c19.8,0,30.7-10.1,30.7-25.7v-0.5c0-17.4-11.7-25.6-31.5-25.6H493v51.9H533.5z"/>
		<path d="M635.7,192.2v-0.5c0-40.2,32.3-72.7,75.9-72.7c43,0,75.4,31.8,75.4,72.2v0.5c0,40.2-32.3,72.7-75.9,72.7
			C668,264.5,635.7,232.6,635.7,192.2z M747.8,192.2v-0.5c0-20.6-14.9-38.6-36.8-38.6c-22.7,0-36.2,17.2-36.2,38.1v0.5
			c0,20.6,14.9,38.6,36.8,38.6C734.2,230.3,747.8,213.1,747.8,192.2z"/>
		<path d="M812.4,243.2l16.9-26.3c15.4,11.3,30.8,16.8,44.1,16.8c11.5,0,16.7-4.2,16.7-10.5v-0.5c0-8.7-13.6-11.3-28.9-16.3
			c-19.6-5.5-41.7-15-41.7-42.3v-0.5c0-28.6,22.9-44.6,51.1-44.6c17.7,0,36.8,6,52.1,16.3l-15.1,27.6c-13.8-8.1-27.6-13.1-37.8-13.1
			c-9.6,0-14.6,4.2-14.6,9.7v0.5c0,7.4,13.3,12.1,28.4,16.8c19.6,6.3,42.2,16,42.2,41.7v0.5c0,31.2-23.2,45.4-53.5,45.4
			C852.5,264.5,831.1,257.9,812.4,243.2z"/>
		<path d="M967.9,222.5v-69.6h-16.7V119h16.7V83.3h39.6V119h32.3v33.9h-32.3V216c0,9.1,4.2,13.6,12.8,13.6c7,0,13.6-1.6,19.6-5v31.8
			c-8.3,5-18,8.1-31.3,8.1C984.6,264.5,967.9,254.8,967.9,222.5z"/>
		<path d="M1065.3,192.2v-0.5c0-39.9,28.4-72.7,69.1-72.7c46.7,0,68.1,36.2,68.1,75.9c0,3.1-0.3,6.5-0.5,10.4h-97.3
			c3.9,18,16.4,27.4,34.2,27.4c13.3,0,22.7-4.2,33.9-14.3l22.7,20.1c-13.3,16.4-31.8,26.1-57.1,26.1
			C1096.4,264.5,1065.3,235,1065.3,192.2z M1163.9,180.5c-2.3-17.7-12.8-29.7-29.5-29.7s-27.1,11.7-30.2,29.7H1163.9z"/>
		<path d="M1238.2,119h40.5v31.5c8.3-19.4,21.3-32.5,45.5-31.4v42.3h-2.1c-26.9,0-43.4,16-43.4,50.3v52.7h-40.5V119z"/>
		<g>
			<path d="M1359.9,183.4V83.3h40.2v99.1c0,30,14.6,45.1,39.4,45.1c24.8,0,39.4-14.6,39.4-43.8V83.3h40.2v98.8
				c0,55.3-31,82.4-80,82.4C1389.9,264.5,1359.9,237.3,1359.9,183.4z"/>
			<path d="M1554.6,119h39.6v23.2c9.6-13.3,22.7-22.7,43.5-22.7c32.6,0,63.6,25.6,63.6,72.2v0.5c0,46.7-30.5,72.2-63.6,72.2
				c-21.1,0-34.2-9.6-43.5-20.9v56.6h-39.6V119z M1661.8,192.2v-0.5c0-23.2-15.6-38.6-34.2-38.6c-18.5,0-33.9,15.4-33.9,38.6v0.5
				c0,23.2,15.4,38.6,33.9,38.6C1646.1,230.8,1661.8,215.7,1661.8,192.2z"/>
		</g>
	</g>
</g>
</svg>
