<?xml version="1.0" encoding="utf-8"?>
<!-- Generator: Adobe Illustrator 27.2.0, SVG Export Plug-In . SVG Version: 6.00 Build 0)  -->
<svg version="1.1" id="Layer_1" xmlns="http://www.w3.org/2000/svg" xmlns:xlink="http://www.w3.org/1999/xlink" x="0px" y="0px"
	 viewBox="0 0 500 500" style="enable-background:new 0 0 500 500;" xml:space="preserve">
<style type="text/css">
	.st0{fill:#FFFFFF;}
	.st1{fill:#00B851;}
</style>
<g>
	<circle class="st0" cx="250" cy="250" r="250"/>
	<path class="st1" d="M250,0C111.9,0,0,111.9,0,250c0,72.6,30.9,138,80.4,183.7c-3.4-6.9-3.2-14.5,0.7-24.5
		c7.3-18.8,15.8-37.5,26.2-54.9c12.4-20.7,38-27.3,60-17.3c55.2,25.1,110.2,25.1,165.4,0.1c22.5-10.2,47.8-3.4,60.5,17.8
		c10.1,16.8,18.3,34.9,25.3,53.3c4.1,10.6,4.6,18.3,1.3,25.3c49.3-45.7,80.2-111,80.2-183.5C500,111.9,388.1,0,250,0z M249.2,330.8
		c-53.7-0.3-97.2-44.4-96.9-98.3c0.2-54,43.8-97.5,97.7-97.6c54.1-0.1,98,44,97.9,98.4C347.8,287.4,303.6,331.1,249.2,330.8z"/>
</g>
</svg>
