<?xml version="1.0" encoding="utf-8"?>
<!-- Generator: Adobe Illustrator 27.2.0, SVG Export Plug-In . SVG Version: 6.00 Build 0)  -->
<svg version="1.1" id="Layer_1" xmlns="http://www.w3.org/2000/svg" xmlns:xlink="http://www.w3.org/1999/xlink" x="0px" y="0px"
	 viewBox="0 0 500 86.9" style="enable-background:new 0 0 500 86.9;" xml:space="preserve">
<g>
	<path d="M0.9,0h33.3c9.2,0,16.3,2.5,21.2,7.4c4.2,4.2,6.2,9.3,6.2,16.3v0.2c0,11.7-6.3,19.1-15.6,22.6l17.8,26H45.1L29.5,49.1H16.9
		v23.3h-16V0z M33.1,35C41,35,45.4,31,45.4,24.7v-0.2c0-7-4.7-10.2-12.6-10.2H16.9V35H33.1z"/>
	<path d="M74,43.6v-0.2c0-16.1,12.9-29.1,30.3-29.1c17.2,0,30.1,12.7,30.1,28.9v0.2c0,16.1-12.9,29.1-30.3,29.1
		C86.9,72.4,74,59.7,74,43.6z M118.8,43.6v-0.2c0-8.2-5.9-15.4-14.7-15.4c-9.1,0-14.5,6.9-14.5,15.2v0.2c0,8.2,5.9,15.4,14.7,15.4
		C113.4,58.8,118.8,51.9,118.8,43.6z"/>
	<path d="M144.6,63.9l6.8-10.5c6.1,4.5,12.3,6.7,17.6,6.7c4.6,0,6.7-1.7,6.7-4.2v-0.2c0-3.5-5.4-4.5-11.6-6.5
		c-7.8-2.2-16.7-6-16.7-16.9v-0.2c0-11.4,9.2-17.8,20.4-17.8c7.1,0,14.7,2.4,20.8,6.5l-6,11c-5.5-3.3-11-5.2-15.1-5.2
		c-3.9,0-5.8,1.7-5.8,3.9v0.2c0,2.9,5.3,4.8,11.4,6.7c7.8,2.5,16.9,6.4,16.9,16.7v0.2c0,12.5-9.3,18.2-21.4,18.2
		C160.6,72.4,152.1,69.8,144.6,63.9z"/>
	<path d="M206.8,55.6V27.8h-6.7V14.3h6.7V0h15.8v14.3h12.9v13.5h-12.9V53c0,3.6,1.7,5.4,5.1,5.4c2.8,0,5.4-0.6,7.8-2v12.7
		c-3.3,2-7.2,3.2-12.5,3.2C213.4,72.4,206.8,68.6,206.8,55.6z"/>
	<path d="M245.7,43.6v-0.2c0-15.9,11.4-29.1,27.6-29.1c18.7,0,27.2,14.5,27.2,30.3c0,1.3-0.1,2.6-0.2,4.2h-38.9
		c1.6,7.2,6.6,10.9,13.7,10.9c5.3,0,9.1-1.7,13.6-5.7l9.1,8c-5.3,6.6-12.7,10.4-22.8,10.4C258.1,72.4,245.7,60.7,245.7,43.6z
		 M285.1,38.9C284.2,31.8,280,27,273.3,27c-6.7,0-10.8,4.7-12.1,11.9H285.1z"/>
	<path d="M314.8,14.3H331v12.6c3.3-7.8,8.5-13,18.2-12.6v16.9h-0.9c-10.8,0-17.4,6.4-17.4,20.1v21.1h-16.2V14.3z"/>
	<g>
		<path d="M363.5,40V0h16.1v39.6c0,12,5.8,18,15.7,18c9.9,0,15.7-5.8,15.7-17.5V0H427v39.5c0,22.1-12.4,32.9-32,32.9
			C375.5,72.4,363.5,61.6,363.5,40z"/>
		<path d="M441.3,14.3h15.8v9.3c3.9-5.3,9.1-9.1,17.4-9.1c13,0,25.4,10.2,25.4,28.9v0.2c0,18.7-12.2,28.9-25.4,28.9
			c-8.4,0-13.7-3.9-17.4-8.3v22.6h-15.8V14.3z M484.2,43.6v-0.2c0-9.3-6.3-15.4-13.7-15.4c-7.4,0-13.5,6.1-13.5,15.4v0.2
			c0,9.3,6.1,15.4,13.5,15.4C477.9,59,484.2,52.9,484.2,43.6z"/>
	</g>
</g>
</svg>
